Coordinates
nRows=6
nColumns=38

# SIMM Motion File Header:
name Coordinates
datacolumns 38
datarows 6
otherdata 1
range 0.51654000000000000000 0.52154000000000000000

Units are S.I. units (second, meters, Newtons, ...)
Angles are in degrees.

endheader
time	pelvis_tilt	pelvis_list	pelvis_rotation	pelvis_tx	pelvis_ty	pelvis_tz	hip_flexion_r	hip_adduction_r	hip_rotation_r	knee_angle_r	ankle_angle_r	subtalar_angle_r	mtp_angle_r	hip_flexion_l	hip_adduction_l	hip_rotation_l	knee_angle_l	ankle_angle_l	subtalar_angle_l	mtp_angle_l	lumbar_extension	lumbar_bending	lumbar_rotation	arm_flex_r	arm_add_r	arm_rot_r	elbow_flex_r	pro_sup_r	wrist_flex_r	wrist_dev_r	arm_flex_l	arm_add_l	arm_rot_l	elbow_flex_l	pro_sup_l	wrist_flex_l	wrist_dev_l
      0.51654000000000000000	     -3.90026136814743780000	      4.31941377775136280000	      1.69145131362105720000	      1.14665575269329170000	      1.01535709354281070000	     -0.29765854574818229000	     -6.14217282667168880000	      2.72068813501960350000	      0.44797956337839839000	    -91.31833042335102800000	    -20.61184090601877000000	     -0.00000000000011123433	      0.00000000000018353267	     35.25778258155769200000	      6.49730211742788910000	     -3.18062015760447280000	    -14.92641602770023300000	    -24.99453698471331400000	      0.00000000000001049374	     -0.00000000000002527096	     -8.62722365060934140000	     -6.78006624270906410000	     11.87449227355335200000	    -29.49339930464873300000	    -11.00837345176552700000	     -8.84517505404232370000	     94.51600153076867600000	     79.74097908877156700000	     -0.00000000000000954665	     -0.00000000000002720362	    -54.53783514306926600000	    -20.80482676092536200000	    -16.87263833824641100000	    106.90820681856215000000	     85.55174871958627100000	     -0.00000000000000089794	     -0.00000000000001968759
      0.51754000000000000000	     -3.87166650232519730000	      4.34274204358852600000	      1.72841951212053480000	      1.14654555609900430000	      1.01493538102208050000	     -0.29760351757878872000	     -5.89190093856104810000	      2.67178780773905840000	      0.31654091692053704000	    -92.02294332692490300000	    -20.45710384014073900000	     -0.00000000000011178507	      0.00000000000018438700	     35.11914476258326800000	      6.53391387756558920000	     -3.26346949876981010000	    -15.02708038364257900000	    -25.03947170669212600000	      0.00000000000001055823	     -0.00000000000002537326	     -8.67872253417015750000	     -6.83893494201953360000	     11.74404070373501500000	    -29.53095923433829000000	    -10.99765180500828000000	     -8.78117020201418800000	     94.06616595179025400000	     79.50088196085221200000	     -0.00000000000000959610	     -0.00000000000002736993	    -54.30474084825394200000	    -20.90704301551588900000	    -16.78677316905420700000	    106.83598367945392000000	     85.47582648983140500000	     -0.00000000000000089351	     -0.00000000000001980123
      0.51854000000000000000	     -3.84497303469917820000	      4.36615529345704530000	      1.76504254399583860000	      1.14643521389691520000	      1.01450163976817030000	     -0.29755065936174696000	     -5.63782585681829660000	      2.62140460824594570000	      0.18615908551074917000	    -92.72544093572902600000	    -20.29831046014697200000	     -0.00000000000011233908	      0.00000000000018524060	     34.98528109417368600000	      6.57081021025213200000	     -3.34107375322151290000	    -15.14218389310076100000	    -25.08131321915164600000	      0.00000000000001062381	     -0.00000000000002547872	     -8.72750207953202480000	     -6.89756179568914170000	     11.61276429454495100000	    -29.56725742310014800000	    -10.98803311014630200000	     -8.71620189512327490000	     93.61251579105443500000	     79.26476974056382100000	     -0.00000000000000964587	     -0.00000000000002753629	    -54.06910622884236500000	    -21.00967588015721800000	    -16.69831067307177700000	    106.76163578374697000000	     85.40088721178717900000	     -0.00000000000000088877	     -0.00000000000001991564
      0.51954000000000000000	     -3.82004143956543630000	      4.38965687291008420000	      1.80127051461418270000	      1.14632479381944250000	      1.01405608320805630000	     -0.29749989824334172000	     -5.38007054066891130000	      2.56954949452548000000	      0.05689392279416569800	    -93.42573891495504800000	    -20.13570928879010300000	     -0.00000000000011289506	      0.00000000000018609389	     34.85584716801965800000	      6.60803186702599100000	     -3.41294247172613030000	    -15.27125437507113400000	    -25.11954862249652400000	      0.00000000000001068846	     -0.00000000000002558563	     -8.77373003901830200000	     -6.95597147305577930000	     11.48074791849948900000	    -29.60232896781075200000	    -10.97952126364941300000	     -8.65028528705101070000	     93.15514816986191700000	     79.03273325611698400000	     -0.00000000000000969692	     -0.00000000000002770362	    -53.83090980404784900000	    -21.11268753495544100000	    -16.60724340267051600000	    106.68520968243814000000	     85.32716898562323100000	     -0.00000000000000088416	     -0.00000000000002002894
      0.52054000000000000000	     -3.79674011617337340000	      4.41324419775986690000	      1.83707290308652090000	      1.14621435832274220000	      1.01359890624521890000	     -0.29745117732357484000	     -5.11874985294943750000	      2.51624305881122320000	     -0.07121225982008112800	    -94.12374998287685900000	    -19.96955881925024900000	     -0.00000000000011344843	      0.00000000000018694555	     34.73051351024962900000	      6.64562535954661810000	     -3.47859760706673880000	    -15.41383954294218300000	    -25.15355590024218900000	      0.00000000000001075227	     -0.00000000000002568965	     -8.81756867857422930000	     -7.01418124343548580000	     11.34805647976543200000	    -29.63621263586779300000	    -10.97211713314267500000	     -8.58343195287294060000	     92.69416571745031800000	     78.80484554888710100000	     -0.00000000000000974891	     -0.00000000000002787204	    -53.59013430407148300000	    -21.21604028446188700000	    -16.51357102487780200000	    106.60675976189270000000	     85.25490605114436000000	     -0.00000000000000087957	     -0.00000000000002014115
      0.52154000000000000000	     -3.77490855282431870000	      4.43689258751013420000	      1.87243355400943030000	      1.14610400815558330000	      1.01313031413306830000	     -0.29740447426093114000	     -4.85401782832086770000	      2.46153097784411260000	     -0.19812998751191893000	    -94.81937090976707300000	    -19.80012451757689400000	     -0.00000000000011399680	      0.00000000000018779352	     34.60891673693385000000	      6.68365981735032650000	     -3.53727668746908950000	    -15.56956590203103000000	    -25.18138728779112200000	      0.00000000000001081713	     -0.00000000000002579455	     -8.85920934878146940000	     -7.07217914387188170000	     11.21473949751226400000	    -29.66895723367050800000	    -10.96582901066306300000	     -8.51565168988351750000	     92.22969076012783800000	     78.58115568908446800000	     -0.00000000000000980115	     -0.00000000000002804174	    -53.34677216594101900000	    -21.31968926974313000000	    -16.41729805855837700000	    106.52635395471377000000	     85.18432955237347000000	     -0.00000000000000087522	     -0.00000000000002025358
